<?xml version="1.0" standalone="no"?>
<!DOCTYPE svg PUBLIC "-//W3C//DTD SVG 20010904//EN"
 "http://www.w3.org/TR/2001/REC-SVG-20010904/DTD/svg10.dtd">
<svg version="1.0" xmlns="http://www.w3.org/2000/svg"
 width="700.000000pt" height="700.000000pt" viewBox="0 0 700.000000 700.000000"
 preserveAspectRatio="xMidYMid meet">
<metadata>
Created by potrace 1.11, written by Peter Selinger 2001-2013
</metadata>
<g transform="translate(0.000000,700.000000) scale(0.100000,-0.100000)"
fill="#000000" stroke="none">
<path d="M1255 6993 c-179 -23 -313 -62 -461 -133 -396 -187 -665 -533 -766
-981 l-23 -104 0 -2275 0 -2275 23 -102 c125 -565 530 -970 1095 -1095 l102
-23 2275 0 2275 0 102 23 c565 125 970 530 1095 1095 l23 102 0 2275 0 2275
-23 102 c-125 566 -521 964 -1090 1095 l-97 22 -2250 2 c-1237 1 -2263 -1
-2280 -3z m1105 -1996 c452 -108 743 -411 776 -810 l7 -77 -257 0 -256 0 0 34
c0 51 -34 149 -70 206 -71 110 -213 208 -360 247 -88 24 -307 23 -404 -1 -148
-36 -268 -119 -323 -223 -80 -149 -58 -335 50 -429 91 -78 222 -127 590 -220
413 -104 619 -188 786 -320 130 -102 207 -219 248 -374 23 -87 22 -288 -1
-385 -69 -290 -332 -530 -681 -623 -184 -49 -463 -67 -663 -42 -182 23 -370
86 -518 173 -113 66 -280 229 -340 332 -77 132 -123 280 -124 393 l0 52 250 0
249 0 6 -37 c21 -135 64 -229 140 -307 141 -148 342 -214 615 -203 272 11 465
104 545 264 28 53 30 67 30 163 0 99 -2 110 -32 171 -56 113 -154 186 -343
253 -41 15 -191 56 -335 91 -143 35 -307 80 -365 100 -347 120 -558 295 -631
525 -33 101 -37 280 -10 392 77 325 378 585 766 661 125 25 128 25 345 22 177
-3 219 -6 310 -28z m2870 18 c132 -20 230 -49 335 -99 257 -123 425 -334 491
-616 16 -67 18 -165 24 -960 6 -852 7 -889 28 -1003 12 -65 33 -152 47 -193
14 -41 25 -86 25 -99 l0 -25 -265 0 -264 0 -19 63 c-11 34 -25 94 -31 132 -23
131 -13 125 -89 53 -130 -122 -302 -217 -480 -266 -90 -24 -112 -26 -302 -26
-189 0 -212 2 -301 26 -347 94 -594 333 -665 643 -27 115 -25 310 5 430 46
189 153 353 306 467 146 110 301 177 510 223 174 37 281 45 645 45 l340 0 0
168 c0 240 -30 346 -130 464 -184 215 -643 247 -918 64 -120 -79 -182 -167
-206 -288 l-11 -58 -252 0 c-291 0 -263 -14 -238 116 27 143 112 290 241 417
151 148 365 257 600 306 133 28 136 28 319 29 98 1 197 -4 255 -13z"/>
<path d="M5015 3450 c-300 -18 -512 -87 -636 -210 -89 -89 -129 -189 -129
-327 0 -150 41 -256 134 -348 119 -117 250 -160 466 -152 116 4 148 9 230 35
186 62 358 186 449 325 l41 63 0 312 0 312 -212 -2 c-117 0 -271 -4 -343 -8z"/>
</g>
</svg>
